<svg xmlns="http://www.w3.org/2000/svg" xmlns:xlink="http://www.w3.org/1999/xlink" width="815.524" height="435.134" viewBox="0 0 815.524 435.134">
  <defs>
    <clipPath id="clip-path">
      <rect id="Rectangle_3982" data-name="Rectangle 3982" width="217.157" height="143.38" rx="14.22" fill="none"/>
    </clipPath>
    <radialGradient id="radial-gradient" cx="0.109" cy="0.359" r="0.627" gradientUnits="objectBoundingBox">
      <stop offset="0" stop-color="#fff"/>
      <stop offset="1" stop-color="#fff" stop-opacity="0"/>
    </radialGradient>
    <linearGradient id="linear-gradient" x1="0.5" x2="0.5" y2="1" gradientUnits="objectBoundingBox">
      <stop offset="0" stop-color="#fed716"/>
      <stop offset="1" stop-color="#fcb216"/>
    </linearGradient>
    <linearGradient id="linear-gradient-2" y1="0.499" x2="1" y2="0.499" gradientUnits="objectBoundingBox">
      <stop offset="0" stop-color="#614a9e" stop-opacity="0"/>
      <stop offset="0.06" stop-color="#614a9e"/>
      <stop offset="0.95" stop-color="#614a9e"/>
      <stop offset="1" stop-color="#614a9e" stop-opacity="0"/>
    </linearGradient>
  </defs>
  <g id="contact-us-Asset1" transform="translate(0 0.002)" style="mix-blend-mode: normal;isolation: isolate">
    <g id="b" transform="translate(0 -0.002)">
      <g id="c">
        <g id="Group_6431" data-name="Group 6431">
          <path id="Path_7857" data-name="Path 7857" d="M79.668,266.116c-41.17,25.89-62.739,84.227-29.409,161.978h655.7c11.132-28.165,17.8-65.174,19.883-87.2,4.563-48.048-11.774-97.968-40.568-124.327-72.867-66.686-133.452,25.944-171.759-13.219C491.4,180.751,493.5,117.3,476.2,87.854,438.011,22.854,366.107-9.2,295.207,2.3c-47.178,7.653-89.726,32.62-115.683,74.861-35.551,57.855-9.674,99.293-25.368,139.286-17.5,44.582-46.991,32.38-74.5,49.667Z" transform="translate(11.463 0.002)" fill="#e6f3e8"/>
          <g id="Group_6411" data-name="Group 6411" transform="translate(142.609 134.673)">
            <g id="Group_6409" data-name="Group 6409">
              <path id="Path_7858" data-name="Path 7858" d="M111.8,130.113c-.094.375,5.994-3.4,5.994-3.4l2.569-3.987s2.515-1.619,4.308-2.5,5.111-6.262,5.111-6.262l-1.311-1.646a21.88,21.88,0,0,1-2.515,2.676,3.234,3.234,0,0,1-1.887.067,34.459,34.459,0,0,1,1.445-4.068,37.042,37.042,0,0,1,4.081-6.248l-1.151-1.2a35.073,35.073,0,0,0-2.515,2.622c-.669.883-1.94,2.73-1.94,2.73a37.13,37.13,0,0,1,2.141-4.469c.816-1.218,1.713-2.85,1.713-2.85l-1.338-.923a29.715,29.715,0,0,0-2.368,3.372c-.8,1.445-2.288,3.827-2.288,3.827s1.137-3.666,1.686-4.723a14.532,14.532,0,0,0,.763-1.606l-1.579-.535a12.449,12.449,0,0,0-1.873,3.345,17.492,17.492,0,0,1-1.2,2.756,19.057,19.057,0,0,1,.99-4,3.405,3.405,0,0,0,.535-1.284l-1.284-.241s-2.462,4.536-3.76,7.346-2.3,6.61-3.037,8.67a78.482,78.482,0,0,0-1.673,9.058l.335,3.492Z" transform="translate(-104.953 -100.65)" fill="#f5c5b4"/>
              <path id="Path_7859" data-name="Path 7859" d="M151.361,151.487l-31.175-5.365a103.815,103.815,0,0,1-.335-15.976c.549-9.326,1.7-11.922,1.7-11.922l-8.362-1.164s-1.646,7.346-2.837,12.631c-2.622,11.708-5.031,22.679-3.024,25.114,2.917,3.546,28.847,10.771,37.718,17.421,5.339,4,5.031-8.817,6.315-20.739Z" transform="translate(-106.584 -95.103)" fill="#614a9e"/>
            </g>
            <path id="Path_7860" data-name="Path 7860" d="M173.479,211.433,171.9,222.217l3.251,7.386,2.382-3.225.549-6.021,3.519.535,1.726-2.168-.147-4.522L182.6,201.92Z" transform="translate(-84.507 -66.421)" fill="#fbc4ae"/>
            <path id="Path_7861" data-name="Path 7861" d="M174.044,147.734c-2.408-.883-10.236-.308-10.236-.308s-.736,8.362,2.449,14.825,11.079,30.011,12.069,32.219-2.087,35.43-2.087,35.43l11.453-2.341s5.513-25.623,5.472-32.139-6.141-30.894-10.463-38.668-2.81-6.877-8.643-9.031Z" transform="translate(-87.267 -84.902)" fill="#614a9e"/>
            <path id="Path_7862" data-name="Path 7862" d="M162.118,129.7s-2.515,11.052-.549,13.621c1.151,1.512,6.048,6.877,6.048,6.877s-16.217,8.563-20.993,8.563-3.091-9.567-3.091-9.567,5.2-4.108,5.967-6.182,1.2-8.095,1.2-8.095l11.4-5.218Z" transform="translate(-94.193 -90.831)" fill="#fbc4ae"/>
            <g id="Group_6410" data-name="Group 6410" transform="translate(46.698 15.977)">
              <path id="Path_7863" data-name="Path 7863" d="M158.841,131s-.187-4.027,3.184-3.92c2.154.067,2.315,2.034.642,4.576-.709,1.07-.776,3.492-1.659,4.268-1.07.95-1.953-.508-2.275-1.177-.535-1.1.107-3.76.107-3.76Z" transform="translate(-135.728 -107.694)" fill="#f5c5b4"/>
              <path id="Path_7864" data-name="Path 7864" d="M146.442,131s.187-4.027-3.184-3.92c-2.154.067-2.315,2.034-.642,4.576.709,1.07.776,3.492,1.659,4.268,1.07.95,1.953-.508,2.275-1.177.535-1.1-.107-3.76-.107-3.76Z" transform="translate(-141.486 -107.694)" fill="#f5c5b4"/>
              <path id="Path_7865" data-name="Path 7865" d="M167.609,125.178a38.436,38.436,0,0,1-.682,4.094c-.08.468-.174,1-.254,1.619-.7,4.83-1.579,11.4-1.967,12.376-.629,1.619-4.081,4.255-5.713,5.218s-5.753.763-7.4-.2-5.339-3.4-5.967-5.017c-.388-1-1.3-7.76-2.007-12.657-.08-.562-.161-1.044-.227-1.472a35.791,35.791,0,0,1-.669-3.96c-.254-4.081,4.335-10.008,12.443-10.008C164.746,115.17,167.864,121.1,167.609,125.178Z" transform="translate(-141.071 -111.719)" fill="#f5c5b4"/>
              <path id="Path_7866" data-name="Path 7866" d="M145.75,119.672a19.333,19.333,0,0,1,14.838.549l2.863-1.82A23.446,23.446,0,0,0,153.3,116.26c-5.994.04-7.546,3.412-7.546,3.412Z" transform="translate(-140.044 -111.351)" fill="#e8d5e5" style="mix-blend-mode: multiply;isolation: isolate"/>
              <path id="Path_7867" data-name="Path 7867" d="M166.755,125.994c-.08.468-.174,1-.254,1.619-.7,4.83-1.579,11.4-1.967,12.377-.629,1.619-4.081,4.255-5.713,5.218s-5.753.763-7.4-.2-5.339-3.4-5.967-5.017c-.388-1-1.3-7.76-2.007-12.657-.08-.562-.161-1.044-.227-1.472l.656-.99s1.191,7,3.024,9.179,2.181,2.275,2.181,2.275,1.994-.5,3.733-.923c.107-.027.2-.054.294-.08a8.756,8.756,0,0,1,4.362.04,1.616,1.616,0,0,1,.241.067l.268.08,2.837.816s.656-.107,2.489-2.275,2.7-9.179,2.7-9.179l.749,1.124Z" transform="translate(-140.9 -108.441)" fill="#0f0d13"/>
              <path id="Path_7868" data-name="Path 7868" d="M162.7,121.968c-.027.134-.682,4.91-.95,5.66-.415,1.151-.736,1.994-.736,1.994l-.5-1.07a15.779,15.779,0,0,1-1.445-6.3l-.094-4.094,1.365-1.2c2.676.4,2.97,1.953,2.355,5.018Z" transform="translate(-135.573 -111.118)" fill="#0f0d13"/>
              <path id="Path_7869" data-name="Path 7869" d="M147.169,118.3h0l-.656,4.228a16.027,16.027,0,0,1-1.953,5.539l-.054.094-.736,1.284s-.214-.749-.522-1.806c-.227-.776-.776-4.763-.91-5.325-.04-.174-.08-.348-.107-.508-.575-3-.013-4.241,2.636-4.643l2.315,1.151Z" transform="translate(-141.303 -111.047)" fill="#0f0d13"/>
              <path id="Path_7870" data-name="Path 7870" d="M165.729,118.423l-1.365,1.2-2.6.937a20.589,20.589,0,0,0-9.125-1.646c-5.191.4-5.9,1.9-5.981,1.994h0l-.535-.107-2.556-.562-.522-.12a15.894,15.894,0,0,1,1.017-2.89c2.047-3.077,7.6-5.071,12.657-4.563.174.013.335.04.508.054,4.723.615,6.877,2.85,6.877,2.85l1.619,2.85Z" transform="translate(-140.957 -112.591)" fill="#0f0d13"/>
            </g>
            <path id="Path_7871" data-name="Path 7871" d="M174.361,312.84v10.115H154.92s.736-3.666,9.955-5.352l1.351-4.763Z" transform="translate(-90.247 -28.93)" fill="#123a50"/>
            <path id="Path_7872" data-name="Path 7872" d="M152.261,312.84v10.115H132.82s.736-3.666,9.955-5.352l1.351-4.763Z" transform="translate(-97.716 -28.93)" fill="#123a50"/>
            <path id="Path_7873" data-name="Path 7873" d="M176.058,200.29s2.716,32.58,2.81,59.153,1.673,93.754,1.673,93.754H169.81s-11.065-64.518-15.093-81.6-14.477-70.981-14.477-70.981l35.8-.321Z" transform="translate(-95.208 -66.972)" fill="#123a50"/>
            <path id="Path_7874" data-name="Path 7874" d="M156.036,235.248s-2.007,40.488-2.408,48.462,0,69.415,0,69.415-10.062.268-10.062,0-9.486-65.442-10.7-85.083-.508-42.936-2.141-45.653,4.4-22.01,4.4-22.01l14.236,3.8,6.677,31.068Z" transform="translate(-98.521 -66.941)" fill="#123a50"/>
            <path id="Path_7875" data-name="Path 7875" d="M150.685,141.682s-4.456,10.115,2.248,11.226c10.664,1.78,13.915-11.868,13.915-11.868l11.761,6.061s-.214,73.215,4.4,95.56c2.689,12.979-41.986,6.8-48.529-4.723-5.673-9.968,10.717-92.817,10.717-92.817l5.486-3.439Z" transform="translate(-97.558 -86.998)" fill="#fff"/>
            <path id="Path_7876" data-name="Path 7876" d="M163.432,141.99c-.321.442-16.1,46.616-10.731,90.074,1.258,10.129,19.722,1.753,24.137,1.753,0,0,2.1-32.433,2.609-44.488s-5.232-16.029-4.723-21.93,6.931-16.417,6.931-16.417L163.432,142Z" transform="translate(-91.372 -86.677)" fill="#614a9e"/>
            <path id="Path_7877" data-name="Path 7877" d="M144.374,236.555c1.806-30.212,2.542-93.446,2.542-93.446l-10.664-.789s-5.339,53.038-5.406,59.073c-.027,2.4.723,31.523-.9,36.969C133.549,238.9,144.16,240.195,144.374,236.555Z" transform="translate(-98.686 -86.566)" fill="#614a9e"/>
          </g>
          <path id="Path_7878" data-name="Path 7878" d="M345.9,363.174a17.93,17.93,0,0,1-7.974-1.793,16.326,16.326,0,0,1-6.784-6.449,19.294,19.294,0,0,1-15.119-2.77,18.755,18.755,0,0,1-6.984-7.988c-4.87,1.137-9.821,1.191-13.795-.415-6.677-2.7-11.681-9.072-13.38-17.033a26.926,26.926,0,0,1-.468-3.064,23.437,23.437,0,0,1-11.707-4.87,24.738,24.738,0,0,1-8.844-18.638,19.571,19.571,0,0,1-13.353-7.627,19.225,19.225,0,0,1-3.211-13.661c-7.573-2.261-13.447-7.52-15.775-14.183-1.231-3.532-1.137-7.827-.134-12.176a19.779,19.779,0,0,1-10.49-7.64,19.386,19.386,0,0,1-3.479-15.133,16.073,16.073,0,0,1,.99-3.037c-8.041-5.084-11.172-17.1-6.8-26.506.415-.883.883-1.793,1.4-2.7a18.754,18.754,0,0,1-5.807-10.7,24.328,24.328,0,0,1,2.676-15,15.2,15.2,0,0,1-3.8-5.967c-3.144-9.419,2.007-19.4,8.51-25.114,6.944-6.1,16.043-9.219,24.071-11.975l.87,2.529c-7.787,2.676-16.618,5.7-23.161,11.453-5.834,5.125-10.49,14-7.747,22.251a12.27,12.27,0,0,0,2.649,4.4,31.165,31.165,0,0,1,3.184-4.188c3.238-3.6,8.684-5.847,12.7-5.218a6.631,6.631,0,0,1,5.258,3.934c1.686,3.746-.361,7.841-2.97,10.048a12.837,12.837,0,0,1-11.988,2.221A17.535,17.535,0,0,1,209,173.54a21.419,21.419,0,0,0-2.141,12.778,16.252,16.252,0,0,0,4.629,8.791c3.519-5.272,8.536-10.2,13.5-11.721a9.585,9.585,0,0,1,8.041.843,5.254,5.254,0,0,1,2.341,6.3c-1.378,4.964-8.59,11.279-14.718,11.279h0a15.241,15.241,0,0,1-8.47-2.689c-.415.736-.776,1.458-1.111,2.154-3.787,8.175-1.218,18.531,5.606,23,3.4-5.713,9.7-10.9,15.173-11.868a7.388,7.388,0,0,1,8.041,3.318c1.659,2.663,1.271,5.539-1.044,7.921-4.121,4.215-14.3,6.6-20.993,4.188a14.03,14.03,0,0,0-.789,2.408,16.639,16.639,0,0,0,3.037,13.019,17.119,17.119,0,0,0,9.018,6.61c2.315-7.466,7.051-14.6,12.015-17.635,4.2-2.569,8.242-2.154,11.373,1.151a6.811,6.811,0,0,1,1.017,8.215c-3.265,6.476-14.785,12.323-22.411,11.4h-.107c-.9,3.88-1,7.68.08,10.758,2.02,5.767,7.132,10.356,13.755,12.417q.181-.763.442-1.525c2.047-6.329,6.636-11.239,12.283-13.126a12.1,12.1,0,0,1,9.7.843,6.287,6.287,0,0,1,3.077,4.536c.388,2.73-1.044,5.62-4.027,8.122-5.058,4.241-12.176,5.847-19.334,4.442a16.556,16.556,0,0,0,2.77,11.453A16.793,16.793,0,0,0,261,297.412a23.2,23.2,0,0,1,3.84-11.186c1.632-2.408,4.4-5.446,8.349-6.182,3.666-.7,8.2,1.284,9.1,5.325.522,2.3-.241,4.884-2.181,7.466-3.572,4.75-9.687,7.546-16.337,7.479h-.08a22.134,22.134,0,0,0,7.774,16.35,20.525,20.525,0,0,0,9.915,4.188,22.022,22.022,0,0,1,5.874-15.173c2.984-3.091,6.489-4.844,9.888-4.924,3.746-.094,8.2,2.368,9,6.65.535,2.9-.723,6.141-3.532,9.112a24.6,24.6,0,0,1-18.4,7.319c.094.763.214,1.525.375,2.288,1.512,7.091,5.9,12.738,11.761,15.119,3.358,1.365,7.627,1.338,11.895.375-.12-.455-.214-.91-.294-1.365-1.258-7.56,5.191-17.822,11.159-20.605,3.184-1.485,6.1-.95,8.215,1.525,3.064,3.572,3.064,7.867,0,12.109s-9.1,8.095-15.574,10.129a16.141,16.141,0,0,0,5.82,6.449,17.01,17.01,0,0,0,12.47,2.542,16.387,16.387,0,0,1-.789-9.7c1.218-5.125,6.075-11.948,11.105-13.527a5.881,5.881,0,0,1,5.981,1.177,7.836,7.836,0,0,1,2.328,8.122c-1.525,6.382-8.59,12.885-14.838,15.534a13.461,13.461,0,0,0,5.392,4.924c5.325,2.622,12.684,1.726,19.7-2.368a85.224,85.224,0,0,0,9.874-7.172c2.475-1.994,5.031-4.041,7.734-5.847a56.949,56.949,0,0,1,43.244-8.108l-.589,2.609A54.223,54.223,0,0,0,378,345.767c-2.6,1.739-5.111,3.76-7.533,5.713a85.9,85.9,0,0,1-10.2,7.4c-2.622,1.539-8.135,4.255-14.25,4.255Zm-3.559-31.617a4.019,4.019,0,0,0-1.271.214c-3.987,1.258-8.282,7.265-9.312,11.6a13.689,13.689,0,0,0,.736,8.3c5.927-2.408,12.256-8.724,13.46-13.768a5.165,5.165,0,0,0-1.5-5.5,3.063,3.063,0,0,0-2.114-.83Zm-19.963-10.022a5.338,5.338,0,0,0-2.234.562c-4.991,2.328-10.677,11.534-9.647,17.742.067.375.147.749.241,1.111,5.954-1.846,11.547-5.339,14.33-9.192,2.328-3.238,2.368-6.195.134-8.8a3.61,3.61,0,0,0-2.81-1.4Zm-38.427-.428a21.968,21.968,0,0,0,16.618-6.422c1.284-1.351,3.358-4.027,2.837-6.784-.508-2.783-3.572-4.456-6.168-4.456h-.147c-3.626.08-6.583,2.609-8.015,4.108a19.377,19.377,0,0,0-5.125,13.554Zm-20.3-23.442h.281c5.727,0,10.931-2.382,13.955-6.409,1.017-1.351,2.141-3.358,1.713-5.272-.549-2.422-3.613-3.72-5.994-3.278-3.037.575-5.272,3.064-6.623,5.044a20.475,20.475,0,0,0-3.332,9.915Zm-16.27-20.792c6.4,1.258,12.7-.134,17.153-3.867,1.311-1.1,3.439-3.292,3.1-5.687a3.659,3.659,0,0,0-1.833-2.636,9.526,9.526,0,0,0-7.453-.575c-4.844,1.619-8.791,5.887-10.584,11.413C247.625,275.977,247.491,276.418,247.384,276.873Zm-15.695-26.439c6.5.6,16.712-4.629,19.414-9.981a4.143,4.143,0,0,0-.575-5.165c-2.234-2.355-4.937-2.6-8.041-.7-4.389,2.676-8.657,9.139-10.8,15.855Zm-12.617-24.954c5.66,1.833,14.477-.241,17.822-3.666,1.472-1.5,1.7-3.024.682-4.629-1.151-1.846-2.89-2.529-5.312-2.1-4.576.8-10.155,5.446-13.206,10.4Zm-5.513-28.633a12.554,12.554,0,0,0,7.065,2.328h0c4.83,0,11.039-5.339,12.149-9.326a2.571,2.571,0,0,0-1.151-3.3,6.965,6.965,0,0,0-5.874-.575c-4.389,1.338-9,6.008-12.2,10.865ZM210.281,171.2a14.811,14.811,0,0,0,4.87,2.408,10.227,10.227,0,0,0,9.54-1.686c1.927-1.646,3.332-4.549,2.261-6.917a3.991,3.991,0,0,0-3.225-2.382c-3.131-.482-7.653,1.418-10.289,4.362A29.081,29.081,0,0,0,210.281,171.2Z" transform="translate(68.317 43.514)" fill="#4d8059"/>
          <g id="Group_6414" data-name="Group 6414" transform="translate(522.783 216.617)">
            <path id="Path_7879" data-name="Path 7879" d="M575.913,162.411C562.359,153.754,441.551,255.6,445.98,336.07c0,0,23.522-31.764,44.02-47.245s22.505-31.684,22.465-47.726,30.613-9.42,34.066-27.215c6.115-31.5,41.585-43.686,29.382-51.473Z" transform="translate(-372.082 -161.894)" fill="#b1a5cf"/>
            <g id="Group_6412" data-name="Group 6412" transform="translate(69.75 20.107)">
              <path id="Path_7880" data-name="Path 7880" d="M584.113,232.3c-19.521,11.828-13.768,27.576-25.275,36.782-8.363,6.69-22.331,3.2-29.3,12.31-7.841,10.276,1.07,24.419,1.739,36.8.91,17.1-14.343,29.931-29.837,35.122-18,6.034-41.291,4.148-51.152-13.755-11.627-21.127-2.917-52.971,17.474-62.9,4.951-2.408,11.253-3.064,15.293-7.948,6.837-8.242,2.448-20.083,5.606-30.56,3.091-10.209,13.179-17.394,22.478-20.565s18.772-3.827,27.857-7.52c12.377-5.031,23.214-16.069,33.517-23.522,9.192-6.65,41.451-19.107,46.709,2.676,4.777,19.856-18.719,33.142-35.109,43.07Z" transform="translate(-442.097 -176.922)" fill="#fddab3"/>
              <path id="Path_7881" data-name="Path 7881" d="M444.054,364.471l-1.2-.589c32.928-66.913,70.232-109.489,95.72-133.425,27.656-25.957,47.807-36.22,48.007-36.327l.6,1.191c-.789.4-80.32,41.5-143.126,169.15Z" transform="translate(-442.85 -171.105)" fill="#fbb566"/>
            </g>
            <path id="Path_7882" data-name="Path 7882" d="M633.945,239.73s-102.571-1.151-187.815,96.63" transform="translate(-371.991 -135.585)" fill="none" stroke="#fff" stroke-width="1"/>
            <g id="Group_6413" data-name="Group 6413" transform="translate(77.671 123.814)">
              <path id="Path_7883" data-name="Path 7883" d="M578.092,280.507c-9.781,3.907-12.43,20.391-22.96,22.492-7.653,1.525-15.829-5.258-23.308-1.739-8.429,3.96-6.944,15.855-10.4,23.937-4.763,11.159-18.906,14.33-30.828,12.564-13.848-2.047-28.713-10.838-29.637-25.422-1.1-17.207,14.678-34.587,31.336-34.239,4.041.08,8.429,1.726,12.644-.054,7.118-3,7.921-11.948,13.313-17.568,5.245-5.472,14.21-6.743,21.381-5.727s13.661,3.693,20.846,4.308c9.794.843,20.445-2.636,29.623-4,8.189-1.218,41.625-.575,30.172,16.939-7.934,12.122-29.168,3.3-42.187,8.523Z" transform="translate(-444.667 -254.431)" fill="#b1a5cf"/>
              <path id="Path_7884" data-name="Path 7884" d="M449.573,330l-.8-1.07c82.059-60.8,153.736-67.515,154.445-67.582l.107,1.338c-.709.067-72.038,6.77-153.763,67.315Z" transform="translate(-448.77 -252.092)" fill="#9080ba"/>
            </g>
            <path id="Path_7885" data-name="Path 7885" d="M390.733,332.957s16.216-28.392,18.852-31.309c16.672-18.464,38.8-18.665,61.321-14.009,6.516,1.351,23.776,10.41,30.025,9.165,4.87-.977,10.731-19.508,26.332-18.531s16.551,19.508,16.551,19.508,9.794-21.528,25.4-19.548,15.6,16.524,3.907,27.309c0,0,24.873-7.466,49.011,4.094s12.617,26.72,12.617,26.72L390.72,332.97Z" transform="translate(-390.72 -122.615)" fill="#fddab3"/>
          </g>
          <g id="Group_6417" data-name="Group 6417" transform="translate(30.774 216.617)">
            <path id="Path_7886" data-name="Path 7886" d="M67.091,162.411C80.645,153.754,201.453,255.6,197.024,336.07c0,0-23.522-31.764-44.02-47.245S130.5,257.141,130.539,241.1s-30.613-9.42-34.065-27.215c-6.115-31.5-41.585-43.686-29.382-51.473Z" transform="translate(-8.955 -161.894)" fill="#b1a5cf"/>
            <g id="Group_6415" data-name="Group 6415" transform="translate(14.464 20.107)">
              <path id="Path_7887" data-name="Path 7887" d="M69.548,232.3c19.521,11.828,13.768,27.576,25.275,36.782,8.362,6.69,22.331,3.2,29.3,12.31,7.841,10.276-1.07,24.419-1.739,36.8-.91,17.1,14.343,29.931,29.837,35.122,18,6.034,41.291,4.148,51.152-13.755,11.627-21.127,2.917-52.971-17.474-62.9-4.951-2.408-11.253-3.064-15.293-7.948-6.837-8.242-2.449-20.083-5.606-30.56-3.091-10.209-13.179-17.394-22.478-20.565s-18.772-3.827-27.857-7.52c-12.376-5.031-23.214-16.069-33.517-23.522-9.192-6.65-41.451-19.107-46.71,2.676-4.777,19.856,18.719,33.142,35.109,43.07Z" transform="translate(-33.81 -176.922)" fill="#fddab3"/>
              <path id="Path_7888" data-name="Path 7888" d="M201.916,364.471C139.1,236.785,59.579,195.722,58.79,195.321l.6-1.191c.8.4,80.708,41.679,143.728,169.752Z" transform="translate(-25.367 -171.105)" fill="#fbb566"/>
            </g>
            <path id="Path_7889" data-name="Path 7889" d="M23,239.73s102.571-1.151,187.815,96.63" transform="translate(-23 -135.585)" fill="none" stroke="#fff" stroke-width="1"/>
            <g id="Group_6416" data-name="Group 6416" transform="translate(6.319 123.814)">
              <path id="Path_7890" data-name="Path 7890" d="M72.274,280.507C82.055,284.414,84.7,300.9,95.235,303c7.653,1.525,15.829-5.258,23.308-1.739,8.429,3.96,6.944,15.855,10.4,23.937,4.763,11.159,18.906,14.33,30.828,12.564,13.848-2.047,28.713-10.838,29.637-25.422,1.1-17.207-14.678-34.587-31.336-34.239-4.041.08-8.429,1.726-12.644-.054-7.118-3-7.921-11.948-13.313-17.568-5.245-5.472-14.21-6.743-21.381-5.727s-13.661,3.693-20.846,4.308c-9.794.843-20.445-2.636-29.623-4-8.189-1.218-41.625-.575-30.172,16.939,7.934,12.122,29.168,3.3,42.187,8.523Z" transform="translate(-27.723 -254.431)" fill="#b1a5cf"/>
              <path id="Path_7891" data-name="Path 7891" d="M198.973,330C117.248,269.445,45.919,262.742,45.21,262.688l.107-1.338c.709.067,72.4,6.784,154.445,67.582l-.8,1.07Z" transform="translate(-21.812 -252.092)" fill="#9080ba"/>
            </g>
            <path id="Path_7892" data-name="Path 7892" d="M281.115,332.957s-16.217-28.392-18.852-31.309c-16.671-18.464-38.8-18.665-61.321-14.009-6.516,1.351-23.776,10.41-30.025,9.165-4.87-.977-10.731-19.508-26.332-18.531s-16.551,19.508-16.551,19.508-9.794-21.528-25.4-19.548-15.6,16.524-3.907,27.309c0,0-24.873-7.466-49.011,4.094S37.1,336.355,37.1,336.355l244.024-3.385Z" transform="translate(-19.162 -122.615)" fill="#fddab3"/>
          </g>
          <g id="Group_6421" data-name="Group 6421" transform="translate(418.058 253.005)">
            <g id="Group_6418" data-name="Group 6418" transform="translate(17.18 151.595)">
              <path id="Path_7893" data-name="Path 7893" d="M357.522,327.223H332.288a5.37,5.37,0,0,1-5.339-4.91L325.29,302.39h39.2l-1.659,19.923a5.36,5.36,0,0,1-5.339,4.91Z" transform="translate(-325.29 -302.39)" fill="#111813"/>
              <path id="Path_7894" data-name="Path 7894" d="M468.872,327.223H443.638a5.36,5.36,0,0,1-5.339-4.91L436.64,302.39h39.2l-1.659,19.923a5.36,5.36,0,0,1-5.339,4.91Z" transform="translate(-287.654 -302.39)" fill="#111813"/>
            </g>
            <path id="Path_7895" data-name="Path 7895" d="M510.221,309.934H327.25L340.188,215.6a14.855,14.855,0,0,1,14.718-12.845H482.552A14.855,14.855,0,0,1,497.27,215.6l12.938,94.329Z" transform="translate(-307.448 -184.47)" fill="#84c992"/>
            <path id="Path_7896" data-name="Path 7896" d="M479.286,296.25H345.7l9.486-94.757a13.788,13.788,0,0,1,13.715-12.4h87.184a13.788,13.788,0,0,1,13.714,12.4Z" transform="translate(-301.212 -189.09)" fill="#84c992"/>
            <path id="Path_7897" data-name="Path 7897" d="M330.18,266.85l-2.93,21.421H510.221l-2.944-21.421Z" transform="translate(-307.448 -162.807)" fill="#d0d0cf" style="mix-blend-mode: multiply;isolation: isolate"/>
            <path id="Path_7898" data-name="Path 7898" d="M535.026,322.425H312.45l4.121-48.355H530.905Z" transform="translate(-312.45 -160.367)" fill="#84c992"/>
            <g id="Group_6420" data-name="Group 6420" transform="translate(70.554 18.238)">
              <path id="Path_7899" data-name="Path 7899" d="M443.68,228.222a40.722,40.722,0,1,1-53-22.532,40.717,40.717,0,0,1,53,22.532Z" transform="translate(-365.181 -202.721)" fill="#d0d0cf" style="mix-blend-mode: multiply;isolation: isolate"/>
              <circle id="Ellipse_41" data-name="Ellipse 41" cx="35.216" cy="35.216" r="35.216" transform="translate(4.706 6.336) rotate(-1.34)" fill="#fff"/>
              <g id="Group_6419" data-name="Group 6419" transform="translate(10.123 10.093)">
                <path id="Path_7900" data-name="Path 7900" d="M404.136,257.109a4.554,4.554,0,0,1-3.238-1.338,3.645,3.645,0,0,1-.562-.709,4.507,4.507,0,0,1-.428-.789,4.7,4.7,0,0,1-.254-.843,5.1,5.1,0,0,1-.094-.9,4.558,4.558,0,0,1,1.351-3.225,4.631,4.631,0,0,1,4.121-1.258,4.424,4.424,0,0,1,.843.268,7.556,7.556,0,0,1,.8.415,5.672,5.672,0,0,1,.7.575,4.615,4.615,0,0,1,1.351,3.225,5.1,5.1,0,0,1-.094.9,8.759,8.759,0,0,1-.254.843,7.338,7.338,0,0,1-.415.789,4.3,4.3,0,0,1-.575.709,4.734,4.734,0,0,1-.7.562,3.509,3.509,0,0,1-.8.415,3.857,3.857,0,0,1-.843.268,4.048,4.048,0,0,1-.883.094Z" transform="translate(-363.684 -197.521)" fill="#fbb566"/>
                <path id="Path_7901" data-name="Path 7901" d="M399.029,271.458h0a4.579,4.579,0,0,1-3.88-5.178h0a4.579,4.579,0,0,1,5.178-3.88h0a4.593,4.593,0,0,1,3.88,5.178h0a4.578,4.578,0,0,1-4.536,3.934h0a2.659,2.659,0,0,1-.642-.054Zm-14.691-6.248h0a4.588,4.588,0,0,1-.789-6.422h0a4.572,4.572,0,0,1,6.409-.789h0a4.573,4.573,0,0,1,.789,6.409h0a4.534,4.534,0,0,1-3.6,1.766h0A4.554,4.554,0,0,1,384.338,265.21Zm-9.593-12.778a4.559,4.559,0,0,1,2.515-5.941h0a4.578,4.578,0,0,1,5.954,2.515h0a4.6,4.6,0,0,1-2.529,5.954h0a4.52,4.52,0,0,1-1.713.321h0a4.519,4.519,0,0,1-4.228-2.863Zm1.94-10.677a4.588,4.588,0,0,1-3.894-5.178h0a4.584,4.584,0,0,1,5.178-3.88h0a4.583,4.583,0,0,1,3.894,5.165h0a4.578,4.578,0,0,1-4.536,3.934h0a3.454,3.454,0,0,1-.642-.04Zm3.144-13.447a4.575,4.575,0,0,1-.8-6.409h0a4.564,4.564,0,0,1,6.409-.8h0a4.55,4.55,0,0,1,.789,6.409h0a4.534,4.534,0,0,1-3.6,1.766h0a4.554,4.554,0,0,1-2.81-.963Zm36.9-4.549a4.563,4.563,0,0,1-.8-6.409h0a4.575,4.575,0,0,1,6.409-.816h0a4.59,4.59,0,0,1,.8,6.422h0a4.574,4.574,0,0,1-3.6,1.766h0a4.61,4.61,0,0,1-2.81-.963Zm-27.469-5.539a4.559,4.559,0,0,1,2.515-5.941h0a4.578,4.578,0,0,1,5.954,2.515h0a4.585,4.585,0,0,1-2.529,5.954h0a4.472,4.472,0,0,1-1.713.321h0a4.533,4.533,0,0,1-4.228-2.863Zm17.1,1.151a4.579,4.579,0,0,1-3.88-5.178h0a4.563,4.563,0,0,1,5.165-3.88h0a4.566,4.566,0,0,1,3.894,5.165h0a4.575,4.575,0,0,1-4.522,3.934h0a3.6,3.6,0,0,1-.656-.04Z" transform="translate(-372.747 -210.265)" fill="#fbb566"/>
                <path id="Path_7902" data-name="Path 7902" d="M415.006,231.536a4.82,4.82,0,0,1-.883-.094,5.781,5.781,0,0,1-.856-.254,8.867,8.867,0,0,1-.789-.415,4.933,4.933,0,0,1-.709-.575,4.6,4.6,0,0,1-1.338-3.225,4.082,4.082,0,0,1,.094-.9,3.854,3.854,0,0,1,.268-.843,5.077,5.077,0,0,1,.415-.8,4.732,4.732,0,0,1,.562-.7,5.213,5.213,0,0,1,1.5-.99,4.528,4.528,0,0,1,.856-.254,4.609,4.609,0,0,1,4.108,1.244,4.079,4.079,0,0,1,.575.7,4.559,4.559,0,0,1,.415.8,3.858,3.858,0,0,1,.268.843,4.083,4.083,0,0,1,.094.9,4.591,4.591,0,0,1-4.563,4.576Z" transform="translate(-360.01 -206.161)" fill="#fbb566"/>
              </g>
            </g>
          </g>
          <g id="Group_6422" data-name="Group 6422" transform="translate(287.414 97.419)">
            <path id="Path_7903" data-name="Path 7903" d="M356.717,127.461a19.532,19.532,0,0,1,3.92-20.431s33.115,21.448,70.125,15.4c0,0,4.054,11.159-7.319,21.5C423.443,143.932,383.825,151.438,356.717,127.461Z" transform="translate(-167.295 -61.24)" fill="#65a976"/>
            <path id="Path_7904" data-name="Path 7904" d="M460.922,91.543c-23.83-20.1-68.961-22.92-126.093-13.715-49.131,7.908-99.159,26.466-115.871,52.677-7.6,11.935-2.435,45.091-2.435,45.091,45.251,2.823,61.829-36.086,61.829-36.086s-3.024-11.038,7.118-15.922c35.484-17.073,90.489-22.907,110.947-17.862a15.143,15.143,0,0,1,11.748,12.885s27.951,31.737,70.031,14.852c0,0-6.449-32.794-17.274-41.92Z" transform="translate(-214.809 -72.807)" fill="#84c992"/>
            <path id="Path_7905" data-name="Path 7905" d="M287.368,140.537a19.522,19.522,0,0,0-10.129-18.157s-24.7,30.761-61.749,36.634c0,0-.348,11.868,13.7,18.117,0,0,39.966-5.3,58.19-36.581Z" transform="translate(-214.579 -56.051)" fill="#65a976"/>
          </g>
          <g id="Group_6423" data-name="Group 6423" transform="translate(153.014 285.827)" clip-path="url(#clip-path)">
            <rect id="Rectangle_3981" data-name="Rectangle 3981" width="217.157" height="143.38" rx="14.22" fill="#f89b36"/>
            <path id="Path_7906" data-name="Path 7906" d="M331.517,232.646a19.032,19.032,0,0,0-19.026-19.026h-179.1a19.032,19.032,0,0,0-19.026,19.026l98.477,79.825a15.853,15.853,0,0,0,19.976,0l98.718-79.838Z" transform="translate(-114.36 -213.62)" fill="#fed716" style="mix-blend-mode: multiply;isolation: isolate"/>
            <path id="Path_7907" data-name="Path 7907" d="M127.031,342.212V236.884a19.032,19.032,0,0,1,19.026-19.026H324.306a18.822,18.822,0,0,0-11.828-4.228H133.386a19.032,19.032,0,0,0-19.026,19.026V337.984a19.032,19.032,0,0,0,19.026,19.026h.843A18.91,18.91,0,0,1,127.031,342.212Z" transform="translate(-114.36 -213.617)" opacity="0.5" fill="url(#radial-gradient)" style="mix-blend-mode: overlay;isolation: isolate"/>
            <path id="Path_7908" data-name="Path 7908" d="M210.937,298.606,114.36,213.63H331.517l-96.577,84.976a18.177,18.177,0,0,1-24,0Z" transform="translate(-114.36 -213.617)" fill="url(#linear-gradient)"/>
            <path id="Path_7909" data-name="Path 7909" d="M210.937,298.606,114.36,213.63H331.517l-96.577,84.976a18.177,18.177,0,0,1-24,0Z" transform="translate(-114.36 -213.617)" fill="#faa84e"/>
          </g>
          <g id="Group_6426" data-name="Group 6426" transform="translate(370.781 121.44)">
            <g id="Group_6424" data-name="Group 6424" transform="translate(45.703)">
              <path id="Path_7910" data-name="Path 7910" d="M327.954,168.417s6.182-17.836,6.61-19.8c2.556-11.587,3.251-36.715,3.091-42.053S337,96.527,336.892,95.8s-3.425-4.295-3.439-4.241a6.728,6.728,0,0,1-1.03.107l-.04.669-1.432-1.231-1.191-.067-.12.562-1.7-.816L326.3,90.76s1.057,3.4,1.659,5.459-.027,2.234-.027,2.234a4.527,4.527,0,0,1-1.833.335,12.629,12.629,0,0,0-2.328-.094s4.991,6.489,5.218,7.091a11.738,11.738,0,0,1,2.007,9.393c-1.9,10.45-7.1,25.971-7.1,25.971.161-.361-6.717,19.254-6.717,19.254l10.784,8.028Z" transform="translate(-309.281 -90.76)" fill="#fbc4ae"/>
              <path id="Path_7911" data-name="Path 7911" d="M326.629,176.3c1.913-15.012,9.593-32.54,9.593-32.54s-11.734-2.328-14.772-6.5c0,0-4.041,9.874-6.369,14.8-2.569,5.446-6.182,11.36-1.646,14.584,4.375,3.118,12.537,14.879,13.193,9.66Z" transform="translate(-311.274 -75.043)" fill="#614a9e"/>
            </g>
            <path id="Path_7912" data-name="Path 7912" d="M289.12,313.693v9.647h18.545s-.7-3.492-9.486-5.111l-1.3-4.549h-7.76Z" transform="translate(-273.059 -15.413)" fill="#0f0d13"/>
            <path id="Path_7913" data-name="Path 7913" d="M310.2,313.693v9.647h18.545s-.7-3.492-9.486-5.111l-1.3-4.549H310.2Z" transform="translate(-265.934 -15.413)" fill="#0f0d13"/>
            <path id="Path_7914" data-name="Path 7914" d="M292.535,206.33s-2.6,26.961-2.689,52.316S288.24,352.2,288.24,352.2h10.236s10.557-65.669,14.4-81.966,13.808-63.6,13.808-63.6l-34.159-.308Z" transform="translate(-273.357 -51.697)" fill="#3a2b5e"/>
            <path id="Path_7915" data-name="Path 7915" d="M305.464,139.48s-.669,5.165-1.2,7.787a22.246,22.246,0,0,1-1.392,4.817c-.883,1.78-6.329,7.185-6.329,7.185s16.966,8.965,21.957,8.965,3.238-10.008,3.238-10.008-5.446-4.295-6.248-6.476-1.258-8.47-1.258-8.47l-8.751-3.8Z" transform="translate(-270.551 -74.293)" fill="#fbc4ae"/>
            <path id="Path_7916" data-name="Path 7916" d="M308.08,235.683s1.913,42.736,2.3,50.349,0,66.218,0,66.218,9.593.254,9.593,0,9.045-66.539,10.209-85.271.482-40.956,2.047-43.538-4.2-16.886-4.2-16.886l-13.581-.5L308.08,235.7Z" transform="translate(-266.651 -51.789)" fill="#3a2b5e"/>
            <path id="Path_7917" data-name="Path 7917" d="M303.539,151.231s-14.33-5.753-16.7-1.03c-1.793,3.572-.254,26.492.549,32.9.7,5.579,4.549,52.463,4.549,52.463s5.352,8.3,31.135,4.991c9.941-1.271,14.825-6.115,14.825-6.115s-2.783-55.942-3.559-61.561a119.84,119.84,0,0,0-3.425-14.37l-7.667-5.058s2.449,5.406-4.482,6.944c-13.955,3.1-15.226-9.165-15.226-9.165Z" transform="translate(-274.111 -71.299)" fill="#614a9e"/>
            <path id="Path_7918" data-name="Path 7918" d="M318.1,124.9c1.619.656,4.469,2.114,4.777,3.479a53.04,53.04,0,0,1,1.619,7.667c.147,2.382.5,6.891.482,9.687s-1.7,8.483-2.341,9.085-5.352,1.579-6.944,1.124-10.945-5.3-11.534-11.212c0,0-1.659.87-4.71-4.068-.789-1.285,1.953-10.865,2.315-12.577.9-4.148,11.119-.883,13.42-1.539s2.9-1.646,2.9-1.646Z" transform="translate(-269.617 -79.221)" fill="#fbc4ae"/>
            <path id="Path_7919" data-name="Path 7919" d="M324.111,129.565s-7.172,4.482-9.968,4.723-6.9,4.068-6.824,5.272a2.539,2.539,0,0,1-1.177,2.007s-1.739-2.77-3.171-2.489c-2.823.575-1.164,4.054.361,4.817a24.232,24.232,0,0,0,3.024,1.244,14.782,14.782,0,0,1,.134,2.984,13.54,13.54,0,0,1-1.191,3.492s-3.3-6.958-6.275-9.567c-7.051-6.182-1.94-17.662,5-19.816,2.81-.87,10.5-1.445,14.263.227a10.216,10.216,0,0,1,5.82,7.091Z" transform="translate(-270.854 -80.407)" fill="#0f0d13"/>
            <path id="Path_7920" data-name="Path 7920" d="M306.968,135.965c.107.281.843.335.977.388.294.134.161.174,1.458,2.154.95,1.458,2.542,1.927,5.526.923,2.275-.763,1.953-2.716,2.114-3.653s.361-1.084.723-1.151.562.027,1.03.843.682,2.944,3.064,2.582c1.646-.241,2.074-.7,2.288-1.994a13.227,13.227,0,0,0,.187-3.144c-.067-.856-.08-1.378-.522-1.432a8.346,8.346,0,0,0-1.953.214c-1.418.254-2.435.281-3.211.83s-.682.9-1.084.977-.482-.281-1.392-.535-4.7.4-6.115.656-3.372.776-3.332,1.311a4.386,4.386,0,0,0,.227,1.017Zm12.256-2.114c.067-.7.12-.615,1.873-1.017s1.94-.321,2.288-.04a3.711,3.711,0,0,1,.428,2.823,1.941,1.941,0,0,1-1.686,2.034c-1.539.268-1.9-.5-2.341-1.565a6.537,6.537,0,0,1-.575-2.234ZM309,134.988c.241-.388,2.609-.709,4.4-.923s2.382-.294,2.689.334a6.82,6.82,0,0,1,.227,2.288c-.04,1.151-.268,2.168-3.051,2.663-1.967.348-2.917-.187-3.72-1.659a3.227,3.227,0,0,1-.522-2.716Zm-5.954,1.766,3.92-.8,1.325-1.94s-1.5.214-3.987.763a7.744,7.744,0,0,0-2.355,1.111,3.914,3.914,0,0,1,1.111.856Z" transform="translate(-268.723 -77)" fill="#614a9e"/>
            <g id="Group_6425" data-name="Group 6425" transform="translate(0 13.969)">
              <path id="Path_7921" data-name="Path 7921" d="M280.547,166.521s-3.385-21.475-3.425-23.482c-.2-11.868,5.82-27.817,7.051-33.022s2.047-4.375,2.288-5.058,8.871-2.007,8.871-2.007a22.735,22.735,0,0,1,2.863-1.017c.535-.054,2.81-.736,2.81-.736l-1.325,2.382s-5.379,4.081-5.713,4.629a11.758,11.758,0,0,0-3.84,8.8c-.227,10.624-.187,22.117-.187,22.117-.08-.388,5.084,22,5.084,22l-14.464,5.406Z" transform="translate(-277.116 -101.2)" fill="#fbc4ae"/>
              <path id="Path_7922" data-name="Path 7922" d="M290.069,185.7c-3.653-10.356-11.988-38.146-11.988-38.146s12.4-3.118,15.909-6.917c0,0,4.188,12.43,5.927,17.581,1.927,5.7,4.817,12-.067,14.678-4.71,2.582-8.028,17.769-9.781,12.8Z" transform="translate(-276.791 -87.869)" fill="#614a9e"/>
            </g>
          </g>
          <g id="Group_6430" data-name="Group 6430" transform="translate(537.167 131.03)">
            <g id="Group_6427" data-name="Group 6427" transform="translate(8.26 92.352)">
              <path id="Path_7923" data-name="Path 7923" d="M475.808,188.52c3.225,3,5.5,1.994,10.329,18.545,3.091,10.57,14.357,63.916,14.357,63.916l-6.73,2.917a380.987,380.987,0,0,0-19.722-46.161,92.2,92.2,0,0,1-7.319-19.923l-19.655-1.177c-12.3-5.058-8.081-22.987-8.081-22.987s33.6,1.873,36.822,4.884Z" transform="translate(-397.286 -161.305)"/>
              <path id="Path_7924" data-name="Path 7924" d="M411.693,178.31l17.742-11.36L446.6,180.276l21.381,6.9-.12.067c8.6,2.984,18.411,7.332,21.421,10.142,3.225,3,9.567,7.252,4.456,23.723-3.265,10.517-17.528,63.823-17.528,63.823l-7.225-1.284s2.569-30.881,5.138-53.988c1.244-11.2,1.673-14.33,1.673-14.33s-47.726,5.2-63.1-2.917c-10.758-5.686-.99-25.489-.99-34.106Z" transform="translate(-407.644 -166.95)" fill="#3a2b5e"/>
              <path id="Path_7925" data-name="Path 7925" d="M461.589,252.243s-.214,1.94-3.318,2.81a5.292,5.292,0,0,1-5.218-1.7l-.682,6.342,9.928,7h8.242l-4.456-4.951L461.6,252.23Z" transform="translate(-392.527 -138.125)" fill="#0f0d13"/>
              <path id="Path_7926" data-name="Path 7926" d="M485.687,245.67a3.412,3.412,0,0,1-1.231,4.5,5.277,5.277,0,0,1-5.486-.027l1.271,6.248,23.442-7.332-18-3.385Z" transform="translate(-383.536 -140.343)" fill="#0f0d13"/>
            </g>
            <g id="Group_6429" data-name="Group 6429">
              <path id="Path_7927" data-name="Path 7927" d="M466.321,134.954c-.04.334-3.907-4.643-3.907-4.643l-.9-4.081s-1.579-2.114-2.8-3.385-2.3-6.744-2.3-6.744l1.592-.963a19.321,19.321,0,0,0,1.258,2.984,2.88,2.88,0,0,0,1.539.629,30.5,30.5,0,0,0,.054-3.8,34,34,0,0,0-1.445-6.422l1.325-.642a28.7,28.7,0,0,1,1.271,2.944c.281.937.763,2.85.763,2.85a31.748,31.748,0,0,0-.4-4.348c-.308-1.258-.535-2.89-.535-2.89l1.392-.361a27.622,27.622,0,0,1,.923,3.506c.227,1.432.723,3.867.723,3.867a43.306,43.306,0,0,0,.054-4.429c-.134-1.044-.147-1.552-.147-1.552l1.472.04a11.1,11.1,0,0,1,.522,3.332,17.589,17.589,0,0,0,.147,2.649,17.092,17.092,0,0,0,.415-3.613,3.284,3.284,0,0,1-.054-1.231l1.137.187s.642,4.5.843,7.225-.12,6.168-.147,8.095-.08,3.425-.08,3.425l-2.676,7.359Z" transform="translate(-382.898 -95.172)" fill="#fbc4ae"/>
              <path id="Path_7928" data-name="Path 7928" d="M444.247,134.777a178.911,178.911,0,0,0,18.29,13.072s3.4-8.536,5.031-14.584c1.94-7.225,2.5-10.543,2.5-10.543l6.9-.562s-2.181,18.464-4.9,31c-2.636,12.176-5.954,9.995-8.871,9.406s-30.386-15.36-30.386-15.36l2.944-15.681s1.953-2.1,8.5,3.265Z" transform="translate(-390.874 -89.737)" fill="#fbc4ae"/>
              <path id="Path_7929" data-name="Path 7929" d="M419.663,98.627c1.472-.843,8.563-1.418,13.005,1.311,8.5,5.232,4.415,19.562,3.88,22.866s2.515,9.246,2.462,13.193-.99,5.365-3.934,9.192a7.376,7.376,0,0,0-1.1,3.051,28.32,28.32,0,0,1-3.96-11.654c-.7-6.784-2.141-5.2-5.526-12.644s-3.546-18.665-3.546-18.665l-1.3-6.65Z" transform="translate(-395.326 -97.928)" fill="#0f0d13"/>
              <path id="Path_7930" data-name="Path 7930" d="M431.222,103.318l-7.065-4.857a10.341,10.341,0,0,0-9.54,4.563c-3.506,5.365-4.723,13.139-5.513,18.986s-2.85,16.819-2.7,21.181,5.432,4.951,5.432,4.951l17.755-7.68a52.643,52.643,0,0,1-.161-19.281,95.342,95.342,0,0,0,1.806-17.862Z" transform="translate(-399.806 -97.762)" fill="#0f0d13"/>
              <path id="Path_7931" data-name="Path 7931" d="M434.015,103.923c.375,2.208,2.087,8.7,2.248,12.858s-.321,11.025-3.077,12.912-7.934.388-11.721-1.191-4.71-4.228-5.446-6.663-.482-8.924.388-13.581,3.813-6.516,7.239-7.158S434.015,103.923,434.015,103.923Z" transform="translate(-396.699 -96.882)" fill="#fbc4ae"/>
              <path id="Path_7932" data-name="Path 7932" d="M420.011,114.76s.963,10.343-1.2,15.213c-1.5,3.358-7.586,4.79-7.586,4.79a34.338,34.338,0,0,0,5.874,18.29c6.1,8.978,25.195,12.31,25.195,12.31a83.106,83.106,0,0,0,5.7-15.909c1.967-8.4-3.358-14.892-3.358-14.892s-5.165-1.686-7.64-2.622c-6.008-2.261-5.312-11.828-5.312-11.828l-11.667-5.352Z" transform="translate(-398.175 -92.239)" fill="#fbc4ae"/>
              <path id="Path_7933" data-name="Path 7933" d="M434.133,134.241s-12.336-3.131-16.043-5.539l-12.243,7.279s-7.185,6.864,5.084,24.887c0,0,4.656,16.417-2.9,45.358,0,0,2.047,7.453,13.5,3.479,9.861-3.412,10.089-6.088,18.732-8.282,12.765-3.238,16.123-5.232,16.123-5.232-6.7-10.075-5.513-25.81-5.513-25.81s7.6-7.279,4.348-14.7c-4.7-10.731-6.275-25.917-6.275-25.917l-6.556-1.659a49.193,49.193,0,0,1-5.232,5.566,2.824,2.824,0,0,1-3.024.562Z" transform="translate(-400.697 -87.73)" fill="#614a9e"/>
              <path id="Path_7934" data-name="Path 7934" d="M431.839,127.6s-1.5,5.593-5.379,6.81c0,0,1.512,7.653,5.138,6.329,5.1-1.873,3.1-12.457,3.1-12.457l-2.877-.669Z" transform="translate(-393.024 -87.899)" fill="#fff"/>
              <path id="Path_7935" data-name="Path 7935" d="M413.36,128.279s2.422,11.694,8.884,12.644,8.643-6.168,8.643-6.168-13.7-4.014-15.039-8.215l-2.475,1.726Z" transform="translate(-397.452 -88.257)" fill="#fff"/>
              <path id="Path_7936" data-name="Path 7936" d="M426.7,101.033c-1.191.08-2.074,5.713-2.194,8.858s-4.83,5.633-2.756,12.55,1.793,13.607,4.589,21.194-.682,10.356-2.194,12.979c0,0-5.967-6.529-7.988-9.808a7.885,7.885,0,0,0-8.523-3.827s9.112-17.688,8.8-22.452-1.151-12.055,2.649-16.4,7.613-3.091,7.613-3.091Z" transform="translate(-399.389 -96.935)" fill="#0f0d13"/>
              <path id="Path_7937" data-name="Path 7937" d="M419.707,112.156s-2.529-2.77-4.2-2.355-1.78,2.93-.508,4.977,5.981,3.211,5.981,3.211l-1.271-5.847Z" transform="translate(-397.19 -93.929)" fill="#fbc4ae"/>
              <path id="Path_7938" data-name="Path 7938" d="M423.745,110.146c2.3.214,3.6-.12,7.185-.522,4.589-.508,6.529.669,6.529.669l-1.739-7.627s-5.365-2.984-9.152-2.957c-4.83.027-9.058,1.887-6.663,3.439,2.529,1.659,3.84,6.984,3.84,6.984Z" transform="translate(-395.473 -97.325)" fill="#0f0d13"/>
              <g id="Group_6428" data-name="Group 6428" transform="translate(0 47.652)">
                <path id="Path_7939" data-name="Path 7939" d="M417,142.678c-.816,9.58-3.639,36.862-3.639,36.862,8.71,7.627,21.047,20.3,21.047,20.3s-3.506,6.917-5.018,5.753c-12-9.379-25.73-14.945-26.706-21.475-1.606-10.731-2.168-37.732,1.793-46.509C407.531,130.836,417.874,132.522,417,142.678Z" transform="translate(-401.47 -133.542)" fill="#fbc4ae"/>
                <path id="Path_7940" data-name="Path 7940" d="M432.842,184.139c3.653,1.365,5.941,2.716,5.727,4.081-.147.937-3.265-.776-5.125-.709a10.319,10.319,0,0,0,4.429,4.349c2.408,1.191,3.76,2.837,2.475,4.228s-3.666,3.345-5.218,2.636-7.065-4.563-9.138-5.62-2.9-3.666-3.974-4.389,1.953-6.195,1.953-6.195c.575.161,3.586.8,3.586.8a20.09,20.09,0,0,0,2.984.254,7.091,7.091,0,0,1,2.3.6Z" transform="translate(-394.603 -116.988)" fill="#fbc4ae"/>
              </g>
            </g>
          </g>
          <rect id="Rectangle_3983" data-name="Rectangle 3983" width="815.524" height="7.078" transform="translate(0 428.056)" fill="url(#linear-gradient-2)"/>
        </g>
      </g>
    </g>
  </g>
</svg>
